<svg width="20" height="20">
    <path data-name="Icon awesome-question-circle" d="M20.563 10.563a10 10 0 1 1-10-10 10 10 0 0 1 10 10zm-9.732-6.694a5.223 5.223 0 0 0-4.7 2.571.485.485 0 0 0 .109.656l1.4 1.061a.484.484 0 0 0 .672-.086c.72-.914 1.214-1.443 2.311-1.443.824 0 1.843.53 1.843 1.329 0 .6-.5.914-1.312 1.37-.949.532-2.2 1.194-2.2 2.849v.161a.484.484 0 0 0 .484.484h2.258a.484.484 0 0 0 .484-.484v-.054c0-1.148 3.354-1.2 3.354-4.3-.004-2.34-2.434-4.114-4.703-4.114zm-.268 10a1.855 1.855 0 1 0 1.855 1.855 1.857 1.857 0 0 0-1.855-1.855z" transform="translate(-.563 -.563)" style="fill:#fff"/>
</svg>
